<svg xmlns="http://www.w3.org/2000/svg" width="268" height="64" fill="none"><g fill="#2962FF" clip-path="url(#a)"><path d="M32.292 55.28c-12.922 0-23.396-10.475-23.396-23.397 0-12.922 10.474-23.396 23.396-23.396S55.688 18.96 55.688 31.883c0 8.558-4.597 16.043-11.455 20.12l5.695 5.695c8.144-5.636 13.48-15.043 13.48-25.698C63.409 14.75 49.426.766 32.176.766S.941 14.75.941 32s13.984 31.234 31.234 31.234c3.28 0 6.443-.508 9.412-1.446l-6.658-6.659c-.866.099-1.746.15-2.637.15Z"/><path d="M38.616 46.708c5.36-2.492 9.061-7.922 9.061-14.152 0-8.584-6.97-15.503-15.502-15.503s-15.502 6.968-15.502 15.503c0 6.513 3.989 12.067 9.644 14.39l6.211-6.211.005.005.059-.059 6.024 6.025v.002Z"/><path d="m38.794 46.564-6.025-6.024-.058.058 6.003 6.004.078-.038h.002Zm51.519 6.256c-5.616 0-10.022-1.58-13.22-4.738-3.159-3.159-4.738-7.721-4.738-13.688V11.288h7.604V34.1c0 4.212.897 7.273 2.691 9.184 1.833 1.911 4.407 2.867 7.721 2.867 3.315 0 5.87-.956 7.663-2.867 1.794-1.91 2.691-4.972 2.691-9.184V11.288h7.488v23.106c0 5.967-1.599 10.53-4.797 13.688-3.159 3.159-7.526 4.738-13.103 4.738Zm29.72-.585V11.288h7.604v40.947h-7.604Zm38.802.585c-3.119 0-6.025-.507-8.715-1.52-2.652-1.054-4.973-2.516-6.962-4.388-1.949-1.91-3.47-4.153-4.562-6.727-1.092-2.574-1.638-5.382-1.638-8.423 0-3.042.546-5.85 1.638-8.424 1.092-2.574 2.632-4.797 4.621-6.669 1.989-1.91 4.309-3.373 6.961-4.387 2.652-1.053 5.557-1.58 8.716-1.58 3.354 0 6.415.586 9.184 1.756a17.902 17.902 0 0 1 7.019 5.089l-4.913 4.621c-1.482-1.599-3.14-2.788-4.972-3.568-1.833-.82-3.822-1.229-5.967-1.229-2.145 0-4.114.351-5.908 1.053a14.063 14.063 0 0 0-4.621 2.984c-1.287 1.287-2.301 2.807-3.042 4.562-.702 1.755-1.053 3.686-1.053 5.792 0 2.105.351 4.036 1.053 5.79.741 1.756 1.755 3.276 3.042 4.563a14.061 14.061 0 0 0 4.621 2.984c1.794.702 3.763 1.053 5.908 1.053 2.145 0 4.134-.39 5.967-1.17 1.832-.82 3.49-2.048 4.972-3.685l4.913 4.68c-1.91 2.222-4.25 3.918-7.019 5.088s-5.85 1.755-9.243 1.755Zm31.504-10.237-.409-9.008 21.468-22.287h8.541L202.097 30.24l-4.212 4.62-7.546 7.722Zm-6.785 9.652V11.288h7.604v40.947h-7.604Zm28.546 0-15.677-18.66 5.031-5.557 19.537 24.217H212.1Zm32.941.585c-3.198 0-6.142-.526-8.833-1.58-2.691-1.052-5.031-2.515-7.02-4.386a20.285 20.285 0 0 1-4.621-6.669c-1.092-2.574-1.638-5.382-1.638-8.423 0-3.042.546-5.83 1.638-8.365 1.092-2.574 2.632-4.797 4.621-6.669 1.989-1.91 4.329-3.393 7.02-4.446s5.615-1.58 8.774-1.58c3.198 0 6.123.527 8.775 1.58 2.691 1.053 5.03 2.535 7.019 4.446 1.989 1.872 3.53 4.095 4.621 6.669 1.092 2.534 1.638 5.323 1.638 8.365 0 3.041-.546 5.85-1.638 8.423-1.091 2.574-2.632 4.797-4.621 6.669-1.989 1.871-4.328 3.334-7.019 4.387-2.652 1.053-5.557 1.58-8.716 1.58Zm-.059-6.668c2.067 0 3.978-.351 5.733-1.053 1.755-.702 3.276-1.697 4.563-2.984a14.221 14.221 0 0 0 2.983-4.562c.741-1.755 1.111-3.686 1.111-5.791 0-2.106-.37-4.017-1.111-5.733-.702-1.755-1.696-3.276-2.983-4.563a13.019 13.019 0 0 0-4.563-3.042c-1.755-.702-3.666-1.052-5.733-1.052-2.067 0-3.978.35-5.732 1.052a13.768 13.768 0 0 0-4.563 3.042c-1.287 1.287-2.301 2.808-3.042 4.563-.702 1.716-1.053 3.627-1.053 5.733 0 2.066.351 3.977 1.053 5.732a14.874 14.874 0 0 0 3.042 4.621c1.287 1.287 2.808 2.282 4.563 2.984 1.754.702 3.665 1.053 5.732 1.053Z"/></g><defs><clipPath id="a"><path fill="#fff" d="M0 0h268v64H0z"/></clipPath></defs></svg>